<svg id="Слой_1" data-name="Слой 1" xmlns="http://www.w3.org/2000/svg" viewBox="0 0 16.61 22.14"><defs><style>.cls-1{fill:#ececec;}</style></defs><title>рубль</title><path class="cls-1" d="M26.66,30.11h6.92a6,6,0,0,1,2.33.47,5.76,5.76,0,0,1,1.91,1.29,6.15,6.15,0,0,1,1.29,1.9,6,6,0,0,1,0,4.67,6.19,6.19,0,0,1-1.29,1.91,5.89,5.89,0,0,1-1.91,1.28,6,6,0,0,1-2.33.47H26.66v-12ZM33.58,43a6.92,6.92,0,1,0,0-13.84H26.2a.45.45,0,0,0-.46.46V42.1H24.35a.47.47,0,0,0,0,.93h1.39v1.84H24.35a.47.47,0,0,0-.46.46.46.46,0,0,0,.46.46h1.39v5.08a.46.46,0,0,0,.46.46.47.47,0,0,0,.46-.46V45.79H34.5a.45.45,0,0,0,.46-.46.46.46,0,0,0-.46-.46H26.66V43Z" transform="translate(-23.89 -29.19)"/></svg>